<?xml version="1.0" encoding="UTF-8" standalone="no"?>
<svg width="200px" height="300px" viewBox="0 0 200 300" version="1.1" xmlns="http://www.w3.org/2000/svg" xmlns:xlink="http://www.w3.org/1999/xlink" xmlns:sketch="http://www.bohemiancoding.com/sketch/ns">
    <title>turned</title>
    <description>Created with Sketch (http://www.bohemiancoding.com/sketch)</description>
    <defs></defs>
    <g id="Page-1" stroke="none" stroke-width="1" fill="none" fill-rule="evenodd" sketch:type="MSPage">
        <rect id="Rectangle-2" fill="#FFFFFF" sketch:type="MSShapeGroup" x="0" y="0" width="200" height="300"></rect>
        <g id="turned" sketch:type="MSArtboardGroup">
            <rect id="Rectangle-1" stroke="#58AA74" stroke-width="3" sketch:type="MSShapeGroup" x="10" y="10" width="180" height="280" rx="5"></rect>
            <g id="logo" sketch:type="MSLayerGroup" transform="translate(50.684932, 99.500000)" fill="#58AA74">
                <g id="Page-1" transform="translate(0.000000, 0.000000)" sketch:type="MSShapeGroup">
                    <g id="Group">
                        <path d="M47.3314153,8.66033189 C35.7965077,6.31506499 22.9332044,7.51654403 19.0365745,15.4465561 C15.1399453,23.3765682 19.0365745,35.4248721 32.9987156,38.2962334 C46.960857,41.1675948 58.8297307,41.6272471 71.8337978,34.5146622 C84.8378647,27.402077 84.1095896,6.64490581 72.4496373,4.93537636 C60.7896852,3.22584671 58.866323,11.0055989 47.3314153,8.66033189 L47.3314153,8.66033189 Z" id="Path-3"></path>
                        <g id="Path-4-+-Path-4" transform="translate(12.602740, 62.739726)">
                            <path d="M36.5817638,7.88099315 C29.8828129,-0.113441781 22.140411,13.0040657 11.7401541,13.0040668 C1.33989719,13.0040678 0.128959595,4.82769693 3.53167808,-0.113441781 C-1.05950333,1.80436644 -3.2866011,16.5641053 10.1308322,19.9494328 C23.5482654,23.3347604 43.280714,15.8754282 36.5817638,7.88099315 L36.5817638,7.88099315 Z" id="Path-4"></path>
                            <path d="M72.4676813,7.88099315 C65.7464247,-0.113441781 57.9782427,13.0040657 47.543356,13.0040668 C37.108469,13.0040678 35.8934994,4.82769693 39.3075478,-0.113441781 C34.7010791,1.80436644 32.4665657,16.5641053 45.9286755,19.9494328 C59.390785,23.3347604 79.1889372,15.8754282 72.4676813,7.88099315 L72.4676813,7.88099315 Z" id="Path-4" transform="translate(54.780451, 10.297517) scale(-1, 1) translate(-54.780451, -10.297517) "></path>
                        </g>
                        <path d="M52.4860874,12.1917813 C52.4860874,12.1917813 51.5205419,12.7219235 50.4773118,10.2552445 C49.5419937,8.04371995 47.6864121,4.51287115 47.0890411,0.873287671 C46.7570099,-1.14966824 50.7940926,0.766267123 50.7940926,0.766267123 L52.4860874,12.1917813 L52.4860874,12.1917813 Z" id="Path-6"></path>
                        <path d="M49.3150685,100.116504 C76.5510301,100.116504 98.630137,82.5145499 98.630137,60.8014359 C98.630137,54.7423564 96.9108414,49.0034121 93.8399652,43.877754 C97.4762912,26.4754864 97.4750134,16.6064835 91.0834614,14.1943903 C86.1415975,12.3293917 78.3795096,21.9329165 74.6652984,27.0715142 C67.2573838,23.5253816 58.5849118,21.4863674 49.3150685,21.4863674 C40.0918359,21.4863674 31.4599825,23.5049279 24.0766802,27.0181364 C20.3475211,21.8667461 12.6219319,12.3358301 7.69712868,14.1943903 C1.32830422,16.5979064 1.30438853,26.4053946 4.90197184,43.6923984 C1.76105515,48.8649036 0,54.6692142 0,60.8014359 C0,82.5145499 22.0791069,100.116504 49.3150685,100.116504 L49.3150685,100.116504 Z M7.24376162,45.1144107 L7.80424395,44.1914008 L7.58423,43.1341959 C4.02245162,26.0192411 4.57605022,18.300579 8.66447441,16.7576579 C9.59061153,16.4081452 11.7266761,17.440131 14.4723054,19.9863768 C16.8902349,22.22872 19.4375152,25.2818691 21.8574238,28.6246852 L23.1946514,30.4719063 L25.2538567,29.4920715 C32.4535997,26.0662062 40.7082148,24.2260934 49.3150685,24.2260934 C57.9647575,24.2260934 66.2583778,26.0846141 73.4823553,29.542697 L75.5456759,30.5303986 L76.8857216,28.6764501 C79.3045126,25.3300614 81.8553764,22.2668392 84.2794874,20.0131164 C87.037769,17.4487112 89.1858236,16.4065772 90.1161156,16.7576579 C94.2197458,18.3063175 94.7613307,26.0737826 91.1581616,43.3173721 L90.9389501,44.3664468 L91.4897559,45.2858074 C94.37842,50.1073323 95.890411,55.371309 95.890411,60.8014359 C95.890411,80.84762 75.1569721,97.3767784 49.3150685,97.3767784 C23.4731649,97.3767784 2.73972603,80.84762 2.73972603,60.8014359 C2.73972603,55.3065118 4.28810249,49.9818312 7.24376162,45.1144107 L7.24376162,45.1144107 Z" id="Oval-1"></path>
                    </g>
                </g>
            </g>
        </g>
    </g>
</svg>