<?xml version="1.0" encoding="UTF-8" standalone="no"?>
<svg width="360px" height="367px" viewBox="0 0 360 367" version="1.1" xmlns="http://www.w3.org/2000/svg" xmlns:xlink="http://www.w3.org/1999/xlink" xmlns:sketch="http://www.bohemiancoding.com/sketch/ns">
    <title>logo</title>
    <description>Created with Sketch (http://www.bohemiancoding.com/sketch)</description>
    <defs></defs>
    <g id="Page-1" stroke="none" stroke-width="1" fill="none" fill-rule="evenodd" sketch:type="MSPage">
        <g id="Group" sketch:type="MSLayerGroup" transform="translate(0.000000, 1.000000)" fill="#FFFFFF">
            <path d="M172.759666,31.6102114 C130.657253,23.0499872 83.7061959,27.4353857 69.4834968,56.3799296 C55.2608004,85.3244738 69.4834968,129.300783 120.445312,139.781252 C171.407128,150.261721 214.728517,151.939452 262.193362,125.978517 C309.658206,100.017581 307.000002,24.2539062 264.441176,18.0141237 C221.882351,11.7743405 214.862079,40.1704361 172.759666,31.6102114 Z" id="Path-3" sketch:type="MSShapeGroup"></path>
            <g id="Path-4-+-Path-4" transform="translate(46.000000, 229.000000)" sketch:type="MSShapeGroup">
                <path d="M133.523438,28.765625 C109.072267,-0.4140625 80.8125002,47.4648399 42.8515625,47.4648438 C4.89062475,47.4648476 0.470702521,17.6210938 12.890625,-0.4140625 C-3.86718715,6.5859375 -11.996094,60.4589844 36.9775376,72.8154297 C85.9511686,85.1718756 157.974606,57.9453129 133.523438,28.765625 Z" id="Path-4"></path>
                <path d="M264.523438,28.765625 C240.072267,-0.4140625 211.8125,47.4648399 173.851563,47.4648438 C135.890625,47.4648476 131.470703,17.6210938 143.890625,-0.4140625 C127.132813,6.5859375 119.003906,60.4589844 167.977538,72.8154297 C216.951169,85.1718756 288.974606,57.9453129 264.523438,28.765625 Z" id="Path-4" transform="translate(200.179295, 37.728094) scale(-1, 1) translate(-200.179295, -37.728094) "></path>
            </g>
            <path d="M191.574219,44.5000018 C191.574219,44.5000018 188.049978,46.4350209 184.242188,37.4316424 C180.828277,29.3595778 174.055404,16.4719797 171.875,3.1875 C170.663086,-4.19628907 185.398438,2.796875 185.398438,2.796875 L191.574219,44.5000018 Z" id="Path-6" sketch:type="MSShapeGroup"></path>
            <path d="M180,365.425241 C279.41126,365.425241 360,301.178107 360,221.925241 C360,199.809601 353.724571,178.862454 342.515873,160.153802 C355.788463,96.6355252 355.783799,60.6136649 332.454634,51.8095246 C314.416831,45.0022798 286.08521,80.0551454 272.528339,98.8110268 C245.489451,85.8676429 213.834928,78.425241 180,78.425241 C146.335201,78.425241 114.828936,85.792987 87.8798829,98.6161979 C74.268452,79.8136234 46.0700514,45.0257799 28.0945197,51.8095246 C4.84831041,60.5823584 4.76101812,96.3796903 17.8921972,159.477254 C6.42785129,178.356898 0,199.542632 0,221.925241 C0,301.178107 80.5887401,365.425241 180,365.425241 Z M26.4397299,164.667599 L28.4854904,161.298613 L27.6824395,157.439815 C14.6819484,94.9702299 16.7025833,66.7971133 31.6253316,61.1654515 C35.0057321,59.8897298 42.8023677,63.656478 52.8239146,72.9502754 C61.6493575,81.1348281 70.9469303,92.2788221 79.7795969,104.480101 L84.6604775,111.222458 L92.1765769,107.646061 C118.455639,95.1416527 148.584984,88.425241 180,88.425241 C211.571365,88.425241 241.843079,95.2088416 268.210597,107.830844 L275.741717,111.435955 L280.632884,104.669043 C289.461471,92.4547242 298.772124,81.2739632 307.620129,73.0478748 C317.687857,63.687796 325.528256,59.8840066 328.923822,61.1654515 C343.902072,66.8180589 345.878857,95.1693064 332.72729,158.108408 L331.927168,161.937531 L333.937609,165.293197 C344.481233,182.891763 350,202.105278 350,221.925241 C350,295.093813 274.322948,355.425241 180,355.425241 C85.6770519,355.425241 10,295.093813 10,221.925241 C10,201.868768 15.6515741,182.433684 26.4397299,164.667599 Z" id="Oval-1" sketch:type="MSShapeGroup"></path>
        </g>
    </g>
</svg>